P3
6 8
255
255  32   0   255   0 255     0   0   0     0   0   0     0   0   0   255   0   0
  0   0   0     0   0 255     0   0   0     0   0   0     0   0   0     0   0   0
  0   0   0     0   0 255     0   0   0     0   0   0     0   0   0     0   0   0
  0   0   0     0   0   0     0   0   0     0   0   0     0   0   0     0   0   0
  0   0   0     0   0   0     0   0   0     0   0   0     0   0   0     0   0   0
  0   0   0     0   0   0     0   0   0     0   0   0     0   0 128     0   0   0
255  32   0     0   0   0     0   0   0     0   0   1     0   0 129     0  32   1
  0  32   0   255   0   0     0   0   0     0   0   0     0  32 128     0   0   0
